<?xml version="1.0" encoding="iso-8859-1"?>
<!-- Generator: Adobe Illustrator 19.0.0, SVG Export Plug-In . SVG Version: 6.00 Build 0)  -->
<svg version="1.1" id="Layer_1" xmlns="http://www.w3.org/2000/svg" xmlns:xlink="http://www.w3.org/1999/xlink" x="0px" y="0px"
	 viewBox="0 0 512 512" style="enable-background:new 0 0 512 512;" xml:space="preserve">
<g>
	<rect x="230.4" y="320" style="fill:#009FD3;" width="179.189" height="95.998"/>
	<path style="fill:#00E588;" d="M102.403,320h85.334v138.667h264.528v-182.4c-27.098,0-49.067-21.966-49.067-49.067
		c0,27.101-21.966,49.067-49.065,49.067c-27.1,0-49.069-21.966-49.069-49.067c0,27.101-21.967,49.067-49.065,49.067
		s-49.067-21.966-49.067-49.067c0,27.101-21.967,49.067-49.067,49.067c-27.099,0-49.067-21.966-49.067-49.067
		c0,27.101-21.967,49.067-49.065,49.067v182.4h42.667L102.403,320L102.403,320z M230.404,320h179.195v95.998H230.404V320z"/>
	<path style="fill:#FF2C47;" d="M206.934,202.669V227.2c0,27.101-21.967,49.067-49.067,49.067
		c-27.099,0-49.067-21.966-49.067-49.067v-24.531l29.44-106.667h78.507L206.934,202.669z"/>
	<path style="fill:#FF6B39;" d="M305.066,202.669V227.2c0,27.101-21.967,49.067-49.065,49.067s-49.067-21.966-49.067-49.067v-24.531
		l9.812-106.667h78.509L305.066,202.669z"/>
	<path style="fill:#FF2C47;" d="M403.199,202.669V227.2c0,27.101-21.966,49.067-49.065,49.067c-27.1,0-49.069-21.966-49.069-49.067
		v-24.531l-9.81-106.667h78.507L403.199,202.669z"/>
	<path style="fill:#FF6B39;" d="M501.333,202.669V227.2c0,27.101-21.969,49.067-49.068,49.067
		c-27.098,0-49.067-21.966-49.067-49.067v-24.531L373.761,96.002h78.505L501.333,202.669z"/>
	<rect x="59.733" y="53.333" style="fill:#00E588;" width="392.533" height="42.667"/>
	<path style="fill:#FF6B39;" d="M10.67,202.669L59.737,96.002h78.505l-29.44,106.667V227.2c0,27.101-21.967,49.067-49.065,49.067
		c-27.101,0-49.067-21.966-49.067-49.067C10.67,227.2,10.67,202.669,10.67,202.669z"/>
	<rect x="102.4" y="320" style="fill:#009FD3;" width="85.333" height="138.667"/>
</g>
<g>
	<path style="fill:#000003;" d="M501.333,448h-38.401V285.961c27.861-5.046,49.065-29.466,49.065-58.761v-24.533
		c0-0.382-0.021-0.758-0.061-1.13c-0.009-0.066-0.022-0.131-0.031-0.198c-0.037-0.308-0.085-0.614-0.149-0.914
		c-0.017-0.078-0.041-0.154-0.06-0.23c-0.067-0.287-0.143-0.57-0.234-0.847c-0.03-0.092-0.067-0.181-0.1-0.273
		c-0.092-0.255-0.189-0.508-0.299-0.754c-0.016-0.036-0.027-0.075-0.044-0.112L462.931,93.665V53.333
		c0-5.891-4.777-10.667-10.667-10.667H59.734c-5.89,0-10.667,4.775-10.667,10.667v40.333L0.976,198.209
		c-0.017,0.036-0.028,0.075-0.044,0.112c-0.11,0.245-0.206,0.497-0.298,0.752c-0.033,0.092-0.07,0.182-0.101,0.276
		c-0.091,0.275-0.164,0.558-0.233,0.843c-0.018,0.078-0.044,0.156-0.061,0.234c-0.065,0.3-0.11,0.605-0.149,0.913
		c-0.009,0.067-0.023,0.132-0.03,0.199C0.021,201.908,0,202.285,0,202.667V227.2c0,29.296,21.205,53.715,49.068,58.761V448H10.667
		C4.775,448,0,452.775,0,458.667s4.775,10.667,10.667,10.667h49.068h42.667h85.333h264.531h49.068
		c5.891,0,10.667-4.775,10.667-10.667S507.225,448,501.333,448z M452.266,265.6c-21.175,0-38.402-17.227-38.402-38.401v-13.867h76.8
		v13.867C490.664,248.373,473.439,265.6,452.266,265.6z M294.399,227.2c0,21.174-17.226,38.401-38.4,38.401
		s-38.4-17.227-38.4-38.401v-13.867h39.835c5.89,0,10.667-4.775,10.667-10.667c0-5.891-4.777-10.667-10.667-10.667h-38.807
		l7.851-85.331h59.044l8.877,96.487V227.2H294.399z M411.318,192l-23.55-85.331h57.663L484.683,192H411.318z M119.468,204.111
		l26.893-97.443h58.692L197.202,192h-7.647c-5.89,0-10.667,4.775-10.667,10.667c0,5.891,4.777,10.667,10.667,10.667h6.71V227.2
		c0,21.174-17.225,38.401-38.398,38.401c-21.174,0-38.4-17.227-38.4-38.401C119.468,227.2,119.468,204.111,119.468,204.111z
		 M315.687,201.69l-8.742-95.021h58.693L389.187,192h-39.962c-5.89,0-10.667,4.775-10.667,10.667
		c0,5.891,4.777,10.667,10.667,10.667h43.305V227.2c0,21.174-17.225,38.401-38.398,38.401c-21.174,0-38.4-17.227-38.4-38.401
		v-24.533C315.732,202.34,315.717,202.014,315.687,201.69z M70.401,64h371.198v21.333H70.401V64z M21.333,227.2v-13.867h28.876
		c5.89,0,10.667-4.775,10.667-10.667c0-5.891-4.775-10.667-10.667-10.667H27.314l39.254-85.331h57.661l-25.711,93.161
		c-0.255,0.924-0.384,1.878-0.384,2.837V227.2c0,21.174-17.226,38.401-38.4,38.401S21.333,248.373,21.333,227.2z M70.401,285.961
		c15.85-2.87,29.539-12.006,38.4-24.752c10.798,15.531,28.759,25.725,49.067,25.725c20.306,0,38.268-10.194,49.065-25.725
		c10.798,15.531,28.759,25.725,49.067,25.725c20.307,0,38.269-10.194,49.067-25.725c10.798,15.531,28.759,25.725,49.067,25.725
		c20.306,0,38.268-10.194,49.065-25.725c8.862,12.746,22.551,21.882,38.402,24.753V448H198.401V319.998
		c0-5.891-4.777-10.667-10.667-10.667h-85.333c-5.89,0-10.667,4.775-10.667,10.667V448H70.401
		C70.401,448,70.401,285.961,70.401,285.961z M113.068,448V330.665h64v48h-10.665c-5.89,0-10.667,4.775-10.667,10.667
		s4.777,10.667,10.667,10.667h10.665V448H113.068z"/>
	<path style="fill:#000003;" d="M230.402,426.665h179.195c5.89,0,10.667-4.775,10.667-10.667v-95.995
		c0-0.354-0.019-0.708-0.053-1.06c-0.015-0.146-0.043-0.288-0.063-0.433c-0.028-0.201-0.052-0.4-0.092-0.599
		c-0.034-0.17-0.08-0.335-0.122-0.502c-0.044-0.171-0.081-0.341-0.131-0.51c-0.05-0.165-0.112-0.323-0.17-0.485
		c-0.06-0.167-0.115-0.336-0.183-0.501c-0.062-0.149-0.134-0.291-0.203-0.436c-0.079-0.171-0.156-0.342-0.245-0.51
		c-0.073-0.137-0.156-0.266-0.236-0.398c-0.098-0.166-0.193-0.335-0.301-0.497c-0.096-0.143-0.203-0.277-0.305-0.415
		c-0.106-0.142-0.203-0.286-0.316-0.422c-0.191-0.231-0.395-0.452-0.603-0.667c-0.035-0.036-0.065-0.076-0.101-0.112
		c-0.034-0.034-0.071-0.063-0.108-0.097c-0.217-0.21-0.438-0.416-0.672-0.607c-0.134-0.11-0.274-0.206-0.412-0.308
		c-0.142-0.106-0.281-0.215-0.427-0.314c-0.158-0.107-0.323-0.198-0.485-0.295c-0.137-0.081-0.269-0.166-0.41-0.242
		c-0.164-0.089-0.335-0.163-0.501-0.242c-0.148-0.069-0.293-0.144-0.445-0.206c-0.163-0.068-0.331-0.123-0.497-0.181
		c-0.162-0.058-0.323-0.121-0.489-0.171c-0.167-0.051-0.338-0.089-0.509-0.131c-0.167-0.042-0.332-0.089-0.503-0.123
		c-0.199-0.039-0.399-0.064-0.599-0.092c-0.145-0.02-0.287-0.048-0.433-0.063c-0.353-0.035-0.707-0.053-1.06-0.053H349.26
		c-0.003,0-0.007,0-0.011,0H230.402c-5.891,0-10.667,4.775-10.667,10.667v96C219.735,421.889,224.511,426.665,230.402,426.665z
		 M339.349,405.331l59.581-59.582v59.582H339.349z M241.069,330.665h82.435l-4.579,4.579c-4.165,4.165-4.165,10.919,0,15.086
		c2.083,2.083,4.813,3.124,7.542,3.124c2.73,0,5.459-1.041,7.542-3.124l19.664-19.664h30.17l-74.667,74.667h-68.109v-74.668H241.069
		z"/>
	<path style="fill:#000003;" d="M309.25,375.091c4.165-4.165,4.166-10.918,0.002-15.085c-4.165-4.166-10.917-4.166-15.086-0.003
		l-4.645,4.644c-4.165,4.165-4.166,10.918-0.002,15.085c2.083,2.084,4.814,3.125,7.543,3.125s5.458-1.041,7.541-3.123
		L309.25,375.091z"/>
</g>
<g>
</g>
<g>
</g>
<g>
</g>
<g>
</g>
<g>
</g>
<g>
</g>
<g>
</g>
<g>
</g>
<g>
</g>
<g>
</g>
<g>
</g>
<g>
</g>
<g>
</g>
<g>
</g>
<g>
</g>
</svg>
